<mxfile host="app.diagrams.net" modified="2023-04-27T02:12:44.471Z" agent="Mozilla/5.0 (Macintosh; Intel Mac OS X 10_15_7) AppleWebKit/537.36 (KHTML, like Gecko) Chrome/112.0.0.0 Safari/537.36" version="21.2.3" etag="3N3LAXpHb2PTD8ifka5L" type="github">
  <diagram name="第 1 页" id="J9yZirFDlBvWtIqrX6DX">
    <mxGraphModel>
      <root>
        <mxCell id="0" />
        <mxCell id="1" parent="0" />
      </root>
    </mxGraphModel>
  </diagram>
</mxfile>
